<svg xmlns="http://www.w3.org/2000/svg" width="40" height="20.87" viewBox="0 0 40 20.87">
  <path id="key_FILL0_wght400_GRAD0_opsz48" d="M50.435,349.391a2.969,2.969,0,1,1,2.087-.87A2.846,2.846,0,0,1,50.435,349.391Zm0,7.478a10.436,10.436,0,1,1,5.478-19.391,9.886,9.886,0,0,1,3.7,4.478H75.087L80,346.87l-7.261,6.652-3.826-2.783-3.826,2.783-3.261-2.609H59.609A9.858,9.858,0,0,1,56.2,355.2,9.605,9.605,0,0,1,50.435,356.87Zm0-2.609a7.369,7.369,0,0,0,4.652-1.674,7.46,7.46,0,0,0,2.739-4.283h4.957l2.348,1.957,3.826-2.739,3.565,2.7,3.7-3.435L74,344.565H57.826a7.448,7.448,0,0,0-2.609-4.2,7.2,7.2,0,0,0-4.783-1.761,7.826,7.826,0,1,0,0,15.652Z" transform="translate(-40 -336)" fill="#F28E00"/>
</svg>
