<svg xmlns="http://www.w3.org/2000/svg" width="40" height="28" viewBox="0 0 40 28">
  <path id="hard_drive_FILL0_wght400_GRAD0_opsz48_1_" data-name="hard_drive_FILL0_wght400_GRAD0_opsz48(1)" d="M83,321h34V307H83Zm27.006-4.5a2.4,2.4,0,0,0,1.769-.731,2.426,2.426,0,0,0,.725-1.775,2.4,2.4,0,0,0-.731-1.769,2.426,2.426,0,0,0-1.775-.725,2.4,2.4,0,0,0-1.769.731,2.427,2.427,0,0,0-.725,1.775,2.4,2.4,0,0,0,.731,1.769A2.426,2.426,0,0,0,110.006,316.5ZM120,304h-4.25l-5-5H89.25l-5,5H80l7.1-7.1a3.156,3.156,0,0,1,.964-.65A2.9,2.9,0,0,1,89.25,296h21.5a2.9,2.9,0,0,1,1.186.25,3.157,3.157,0,0,1,.964.65ZM83,324a3.009,3.009,0,0,1-3-3V304h40v17a3.009,3.009,0,0,1-3,3Z" transform="translate(-80 -296)" fill="#f28e00"/>
</svg>
