<svg xmlns="http://www.w3.org/2000/svg" width="36" height="36" viewBox="0 0 36 36">
  <path id="add_circle_FILL0_wght400_GRAD0_opsz48" d="M96.785,203h2.7v-7.47H107v-2.7H99.485V185h-2.7v7.83H89v2.7h7.785Zm1.227,9a17.423,17.423,0,0,1-7-1.418,18.183,18.183,0,0,1-9.6-9.6,18.016,18.016,0,0,1,0-14.009,18.011,18.011,0,0,1,3.87-5.708,18.475,18.475,0,0,1,5.73-3.848,18.016,18.016,0,0,1,14.009,0,17.991,17.991,0,0,1,9.555,9.563,18.006,18.006,0,0,1,0,14.006,18.384,18.384,0,0,1-3.848,5.719,18.172,18.172,0,0,1-5.715,3.87A17.411,17.411,0,0,1,98.012,212Zm.011-2.7a15.287,15.287,0,1,0-10.845-4.477A14.7,14.7,0,0,0,98.022,209.3ZM98,194Z" transform="translate(-80 -176)" fill="#f28e00"/>
</svg>
