<svg xmlns="http://www.w3.org/2000/svg" width="41.586" height="46.2" viewBox="0 0 41.586 46.2">
  <path id="admin_panel_settings_FILL0_wght400_GRAD0_opsz48" d="M190.62,210.241a3.376,3.376,0,0,0,2.538-1.1,3.626,3.626,0,0,0,1.045-2.589,3.568,3.568,0,0,0-3.583-3.583,3.626,3.626,0,0,0-2.589,1.045,3.376,3.376,0,0,0-1.1,2.538,3.743,3.743,0,0,0,3.685,3.685Zm-.08,7.21a7.467,7.467,0,0,0,3.49-.807,7.593,7.593,0,0,0,2.653-2.307,14.027,14.027,0,0,0-3-1.211,11.912,11.912,0,0,0-3.115-.4,12.265,12.265,0,0,0-3.146.4,12.705,12.705,0,0,0-2.97,1.211,7.677,7.677,0,0,0,2.624,2.307A7.294,7.294,0,0,0,190.54,217.451ZM178.457,221.2a22.294,22.294,0,0,1-13.208-9.027A27.182,27.182,0,0,1,160,195.706V181.921L178.457,175l18.457,6.921v15.573a14.153,14.153,0,0,0-1.73-.721,9.477,9.477,0,0,0-1.73-.433v-12l-15-5.537-15,5.537v11.363a22.407,22.407,0,0,0,1.413,8.075,24.834,24.834,0,0,0,3.6,6.489,22.487,22.487,0,0,0,4.845,4.643,19.856,19.856,0,0,0,5.133,2.653,9.076,9.076,0,0,0,1.038,1.557,16.738,16.738,0,0,0,1.154,1.327,4.488,4.488,0,0,1-1.1.433Q178.976,221.027,178.457,221.2Zm12.257,0A10.881,10.881,0,0,1,179.9,210.414a10.535,10.535,0,0,1,3.172-7.713,10.823,10.823,0,1,1,7.643,18.5ZM178.457,198.187Z" transform="translate(-160 -175)" fill="#fff"/>
</svg>
