<svg xmlns="http://www.w3.org/2000/svg" width="25.38" height="25.38" viewBox="0 0 25.38 25.38">
  <path id="help_FILL0_wght400_GRAD0_opsz48" d="M92.817,196.082a1.192,1.192,0,1,0-.857-.349A1.165,1.165,0,0,0,92.817,196.082Zm-1.11-4.632h1.872a5.192,5.192,0,0,1,.206-1.507,3.735,3.735,0,0,1,1.285-1.57,5.551,5.551,0,0,0,1.4-1.618,3.725,3.725,0,0,0,.412-1.745,3.5,3.5,0,0,0-1.095-2.7,4.1,4.1,0,0,0-2.9-1.015,4.9,4.9,0,0,0-2.744.777,4.439,4.439,0,0,0-1.729,2.141l1.681.635a2.96,2.96,0,0,1,1.047-1.38,2.79,2.79,0,0,1,1.65-.492,2.543,2.543,0,0,1,1.745.587,1.917,1.917,0,0,1,.666,1.507,2.332,2.332,0,0,1-.412,1.317,6.32,6.32,0,0,1-1.206,1.285,6.453,6.453,0,0,0-1.412,1.634A4.318,4.318,0,0,0,91.707,191.45Zm.983,9.93a12.279,12.279,0,0,1-4.917-1A12.785,12.785,0,0,1,81,193.607a12.676,12.676,0,0,1,0-9.866,12.682,12.682,0,0,1,2.728-4.029A13.009,13.009,0,0,1,87.773,177a12.676,12.676,0,0,1,9.866,0,12.67,12.67,0,0,1,6.742,6.742,12.676,12.676,0,0,1,0,9.866,13.009,13.009,0,0,1-2.712,4.045,12.682,12.682,0,0,1-4.029,2.728A12.357,12.357,0,0,1,92.69,201.38Zm0-1.9a10.777,10.777,0,1,0-7.63-3.157A10.379,10.379,0,0,0,92.69,199.477ZM92.69,188.69Z" transform="translate(-80 -176)" fill="#fff"/>
</svg>
