<svg xmlns="http://www.w3.org/2000/svg" width="366.25" height="366.25" viewBox="0 0 366.25 366.25">
  <path id="settings_FILL0_wght400_GRAD0_opsz48" d="M221.006,542.25l-9.156-57.684a122.673,122.673,0,0,1-18.312-8.7A125.816,125.816,0,0,1,176.6,464.422l-54.022,24.722L80,414.063,129.444,377.9a54.427,54.427,0,0,1-1.145-9.385q-.229-5.265-.229-9.385t.229-9.385a54.427,54.427,0,0,1,1.145-9.385L80,304.188l42.577-75.081L176.6,253.828a125.822,125.822,0,0,1,16.939-11.445,94.74,94.74,0,0,1,18.313-8.241L221.006,176h84.237l9.156,57.684a148.435,148.435,0,0,1,18.541,8.469,78.8,78.8,0,0,1,16.71,11.674l54.022-24.722,42.577,75.081-49.444,35.252a64.518,64.518,0,0,1,1.145,9.843q.229,5.265.229,9.843t-.229,9.614a63.753,63.753,0,0,1-1.145,9.614l49.444,35.709-42.577,75.081-54.022-24.722a151.867,151.867,0,0,1-16.71,11.674,79.779,79.779,0,0,1-18.541,8.47l-9.156,57.684Zm42.119-123.609a59.565,59.565,0,0,0,42.119-101.634,59.684,59.684,0,0,0-84.237,0,59.516,59.516,0,0,0,42.119,101.634Zm0-27.469a32.043,32.043,0,1,1,22.662-9.385A30.878,30.878,0,0,1,263.125,391.172ZM263.125,359.125ZM242.981,514.781h40.287l6.409-51.275a107.971,107.971,0,0,0,28.613-11.445,117.338,117.338,0,0,0,24.493-18.77l48.528,21.059,18.313-32.963L366.591,389.8q1.831-7.783,2.976-15.337a102.234,102.234,0,0,0,1.145-15.337,127.352,127.352,0,0,0-.916-15.337,94.731,94.731,0,0,0-3.2-15.337l43.034-31.589L391.312,263.9l-48.528,21.059a102.053,102.053,0,0,0-23.806-19.915,77.217,77.217,0,0,0-29.3-10.3l-6.409-51.275H242.981l-6.409,51.275A97,97,0,0,0,207.5,265.731a100.976,100.976,0,0,0-24.035,19.228L134.937,263.9l-18.312,32.963,43.034,31.589q-1.831,7.783-2.976,15.337a103.328,103.328,0,0,0,0,30.673q1.145,7.554,2.976,15.337l-43.034,31.589,18.312,32.963,48.528-21.059a117.34,117.34,0,0,0,24.493,18.77,107.97,107.97,0,0,0,28.613,11.445Z" transform="translate(-80 -176)" fill="#fff" opacity="0.2"/>
</svg>
