<svg xmlns="http://www.w3.org/2000/svg" width="31" height="31" viewBox="0 0 31 31">
  <path id="account_circle_FILL0_wght400_GRAD0_opsz48" d="M85.5,200.219a22.318,22.318,0,0,1,4.844-2.616,14.42,14.42,0,0,1,5.154-.911,14.577,14.577,0,0,1,5.173.911,22.14,22.14,0,0,1,4.863,2.616,13.6,13.6,0,0,0,2.422-4.224,14,14,0,0,0,.717-4.495,13.176,13.176,0,1,0-26.35,0,13.669,13.669,0,0,0,.736,4.495A13.946,13.946,0,0,0,85.5,200.219Zm9.99-7.556a5.24,5.24,0,1,1,3.778-1.531A5.112,5.112,0,0,1,95.493,192.662ZM95.518,207a15.043,15.043,0,0,1-6.024-1.221,15.641,15.641,0,0,1-8.273-8.264,15.458,15.458,0,0,1,0-12.041,15.694,15.694,0,0,1,8.264-8.254,15.458,15.458,0,0,1,12.041,0,15.718,15.718,0,0,1,8.254,8.255,15.432,15.432,0,0,1,0,12.031,15.665,15.665,0,0,1-8.255,8.273A14.914,14.914,0,0,1,95.518,207Zm-.018-2.325a14.211,14.211,0,0,0,4.166-.62,12.379,12.379,0,0,0,4.011-2.17,16.866,16.866,0,0,0-4.03-2.131,12.043,12.043,0,0,0-8.293,0,16.866,16.866,0,0,0-4.03,2.131,12.379,12.379,0,0,0,4.011,2.17A14.211,14.211,0,0,0,95.5,204.675Zm0-14.337a2.855,2.855,0,1,0-2.151-.833A2.91,2.91,0,0,0,95.5,190.337ZM95.5,187.354ZM95.5,201.846Z" transform="translate(-80 -176)" fill="#fff"/>
</svg>
