<svg xmlns="http://www.w3.org/2000/svg" width="25.291" height="31.06" viewBox="0 0 25.291 31.06">
  <g id="apple-svgrepo-com" transform="translate(-119.253 -90)">
    <path id="Tracciato_6784" data-name="Tracciato 6784" d="M252.067,95.735A7.914,7.914,0,0,0,253.935,90a8.051,8.051,0,0,0-5.289,2.72,7.531,7.531,0,0,0-1.907,5.557A6.661,6.661,0,0,0,252.067,95.735Z" transform="translate(-115.526 0)"/>
    <path id="Tracciato_6785" data-name="Tracciato 6785" d="M127.424,188.334c1.967-.075,2.711-1.209,5.089-1.209s3.046,1.209,5.127,1.172c2.116-.037,3.457-1.827,4.753-3.626a15.915,15.915,0,0,0,2.151-4.2,6.58,6.58,0,0,1-4.168-5.971,6.664,6.664,0,0,1,3.353-5.62,7.387,7.387,0,0,0-5.679-2.925c-2.419-.233-4.72,1.353-5.947,1.353s-3.119-1.319-5.124-1.284a7.663,7.663,0,0,0-6.425,3.7c-2.739,4.517-.7,11.209,1.968,14.872C123.826,186.392,125.381,188.406,127.424,188.334Z" transform="translate(0 -67.276)"/>
  </g>
</svg>
