<svg xmlns="http://www.w3.org/2000/svg" width="26.452" height="31.06" viewBox="0 0 26.452 31.06">
  <g id="linux-svgrepo-com" transform="translate(37.633 90.609)">
    <path id="Tracciato_6794" data-name="Tracciato 6794" d="M116.4,119.389c1.638.2,3.479,1.257,5.019,1.444a1.844,1.844,0,0,0,2.028-1.055,21,21,0,0,1,3.575-.434,15.012,15.012,0,0,1,3.57.381,2.577,2.577,0,0,0,.965,1.108,2.54,2.54,0,0,0,2.848-.524,23.663,23.663,0,0,1,4.488-2.8c1.31-.726,1.069-1.834.247-2.17a1.9,1.9,0,0,1-1.444-1.885,2.3,2.3,0,0,0-.726-1.683,7.654,7.654,0,0,0,.046-4.062c-.628-1.832-2.7-4.778-4.294-6.994s-.24-4.787-1.691-8.065-5.213-3.089-7.241-1.69-1.406,4.87-1.308,6.516a9.574,9.574,0,0,1-.143,3.232c-.187.428-1.5,1.981-2.364,3.283s-1.5,4.009-2.131,5.123a2.54,2.54,0,0,0-.187,2.117,1.6,1.6,0,0,0-.778.876c-.337.718-1.01,1.061-2.222,1.295s-1.2,1.023-.914,1.892,0,1.353-.337,2.461S114.758,119.195,116.4,119.389Zm17.028-5.052a2.684,2.684,0,0,0,2.474-.524,3.9,3.9,0,0,0,.64-.932.775.775,0,0,1,.338.783,1.992,1.992,0,0,0,.822,1.763c.564.3,1.424.711.978,1.126s-2.968,1.426-3.719,2.215-1.723,1.426-2.318,1.237-1.127-1.01-.869-2.213a14.922,14.922,0,0,0,.454-3.265c-.04-.751-.187-1.762,0-1.912a.648.648,0,0,1,.486-.076S132.569,113.962,133.431,114.337Zm-5.584-20.291a1.691,1.691,0,0,1,1.5,1.834,1.9,1.9,0,0,1-.829,1.638c-.124-.051-.254-.109-.4-.169a1.053,1.053,0,0,0,.506-.958.938.938,0,0,0-.789-1.036c-.428,0-.784.467-.784,1.036a1.282,1.282,0,0,0,.136.577c-.259-.1-.492-.194-.68-.265a2.235,2.235,0,0,1-.156-.822A1.69,1.69,0,0,1,127.847,94.046Zm-2.053,3.16a20.1,20.1,0,0,1,1.943.706c.415.143.874.408.829.673s-.265.274-.829.617a11.375,11.375,0,0,1-2.164,1.139c-.388.051-.608-.168-1.023-.434s-1.192-.907-1-1.243c0,0,.608-.466.874-.7S125.379,97.13,125.794,97.206Zm-1.787-2.868c.653,0,1.186.778,1.186,1.736a2.589,2.589,0,0,1-.051.5,1.335,1.335,0,0,0-.481.272c-.076.065-.148.123-.212.187a1.258,1.258,0,0,0,.1-.764c-.09-.517-.439-.9-.783-.849s-.551.532-.468,1.056.434.913.784.855l.058-.02a4.324,4.324,0,0,1-.486.421,1.808,1.808,0,0,1-.822-1.658C122.828,95.109,123.352,94.338,124.007,94.338Zm-3.639,12.545c.673-1.061,1.108-3.381,1.781-4.152a4.287,4.287,0,0,0,.965-3.134s1.451,1.736,2.461,1.451,3.285-1.981,3.621-1.691,3.232,6.659,3.523,8.686a8.873,8.873,0,0,1-.194,3.575s-1.108-.292-1.25.381a28.776,28.776,0,0,0-.143,3.142,6.477,6.477,0,0,1-3.815,2.416,11.045,11.045,0,0,1-3.479.091l-1.3-1.491a1.011,1.011,0,0,0,.869-1.166c-.143-1.01-3.091-2.409-3.621-3.666A5.687,5.687,0,0,1,120.367,106.882Zm-5.732,7.6c.116-.5,1.618-.5,2.2-.847s.693-1.355,1.159-1.62,1.308.693,1.658,1.237a39.918,39.918,0,0,0,2.2,3.427,2.537,2.537,0,0,1,.887,2.046,2.307,2.307,0,0,1-.965,1.2c-.731.226-2.771-.655-3.7-1.043s-3.285-.506-3.588-.849.149-1.121.272-1.852S114.518,114.985,114.635,114.486Z" transform="translate(-151 -180.609)"/>
  </g>
</svg>
