<svg xmlns="http://www.w3.org/2000/svg" xmlns:xlink="http://www.w3.org/1999/xlink" width="413.123" height="336" viewBox="0 0 413.123 336">
  <defs>
    <clipPath id="clip-path">
      <rect id="Rettangolo_681" data-name="Rettangolo 681" width="413.123" height="336" fill="#ffffff"/>
    </clipPath>
  </defs>
  <g id="Raggruppa_3091" data-name="Raggruppa 3091" transform="translate(-211 -114)">
    <g id="Raggruppa_3090" data-name="Raggruppa 3090" transform="translate(211 114)">
      <g id="Raggruppa_3089" data-name="Raggruppa 3089" clip-path="url(#clip-path)">
        <path id="Tracciato_6753" data-name="Tracciato 6753" d="M37.338,163.092a2.492,2.492,0,0,1,2,.839,2.916,2.916,0,0,1,.718,1.96,2.389,2.389,0,0,1-.718,1.759,2.7,2.7,0,0,1-2,.718H3.68A3.569,3.569,0,0,1,1.04,167.33,3.38,3.38,0,0,1,0,164.851V120.957a3.251,3.251,0,0,1,1.04-2.438,3.647,3.647,0,0,1,2.639-1H37.418a2.331,2.331,0,0,1,1.839.718A2.554,2.554,0,0,1,39.9,120a2.76,2.76,0,0,1-.679,1.839,2.34,2.34,0,0,1-1.88.8H5.757v17.99H35.82a2.3,2.3,0,0,1,1.8.759,2.722,2.722,0,0,1,.679,1.878,2.605,2.605,0,0,1-.638,1.72,2.273,2.273,0,0,1-1.839.759H5.757v17.35Z" transform="translate(0 123.659)" fill="#ffffff"/>
        <path id="Tracciato_6754" data-name="Tracciato 6754" d="M24.895,165.411V120.317a2.531,2.531,0,0,1,.878-2.079,3.368,3.368,0,0,1,4.158,0,2.532,2.532,0,0,1,.88,2.079v42.775h29.9a3.128,3.128,0,0,1,2.239.759,2.5,2.5,0,0,1,.8,1.88,2.534,2.534,0,0,1-.8,1.839,3.024,3.024,0,0,1-2.239.8H27.932q-3.038,0-3.037-2.957" transform="translate(26.195 123.659)" fill="#ffffff"/>
        <path id="Tracciato_6755" data-name="Tracciato 6755" d="M84.672,163.092a2.492,2.492,0,0,1,2,.839,2.916,2.916,0,0,1,.718,1.96,2.389,2.389,0,0,1-.718,1.759,2.7,2.7,0,0,1-2,.718H51.012a3.561,3.561,0,0,1-2.637-1.038,3.38,3.38,0,0,1-1.04-2.479V120.957a3.251,3.251,0,0,1,1.04-2.438,3.639,3.639,0,0,1,2.637-1H84.752a2.331,2.331,0,0,1,1.839.718A2.562,2.562,0,0,1,87.229,120a2.75,2.75,0,0,1-.679,1.839,2.333,2.333,0,0,1-1.878.8H53.091v17.99H83.152a2.3,2.3,0,0,1,1.8.759,2.722,2.722,0,0,1,.679,1.878,2.6,2.6,0,0,1-.64,1.72,2.267,2.267,0,0,1-1.839.759H53.091v17.35Z" transform="translate(49.806 123.659)" fill="#ffffff"/>
        <path id="Tracciato_6756" data-name="Tracciato 6756" d="M119.4,117.52a2.554,2.554,0,0,1,1.919.839,3.172,3.172,0,0,1,.8,2.278v44.854a2.711,2.711,0,0,1-.839,2.118,2.93,2.93,0,0,1-2.04.759,3.079,3.079,0,0,1-2.079-.759,2.643,2.643,0,0,1-.88-2.118V130.312L99.97,155.817a3.108,3.108,0,0,1-2.719,1.679,3.288,3.288,0,0,1-2.8-1.679L78.143,130.472v35.019a2.7,2.7,0,0,1-.839,2.118,2.922,2.922,0,0,1-2.038.759,3.075,3.075,0,0,1-2.079-.759,2.643,2.643,0,0,1-.88-2.118V120.717a3.225,3.225,0,0,1,.839-2.319,2.633,2.633,0,0,1,1.96-.878,2.748,2.748,0,0,1,1.439.439,3.425,3.425,0,0,1,1.2,1.32l19.506,30.3L116.6,119.2a3.16,3.16,0,0,1,2.8-1.679" transform="translate(76.083 123.659)" fill="#ffffff"/>
        <path id="Tracciato_6757" data-name="Tracciato 6757" d="M140.81,163.092a2.492,2.492,0,0,1,2,.839,2.918,2.918,0,0,1,.72,1.96,2.391,2.391,0,0,1-.72,1.759,2.7,2.7,0,0,1-2,.718H107.15a3.564,3.564,0,0,1-2.637-1.038,3.38,3.38,0,0,1-1.04-2.479V120.957a3.251,3.251,0,0,1,1.04-2.438,3.642,3.642,0,0,1,2.637-1H140.89a2.328,2.328,0,0,1,1.839.718,2.564,2.564,0,0,1,.64,1.759,2.752,2.752,0,0,1-.681,1.839,2.33,2.33,0,0,1-1.878.8H109.229v17.99h30.063a2.3,2.3,0,0,1,1.8.759,2.722,2.722,0,0,1,.679,1.878,2.605,2.605,0,0,1-.638,1.72,2.27,2.27,0,0,1-1.839.759H109.229v17.35Z" transform="translate(108.877 123.659)" fill="#ffffff"/>
        <path id="Tracciato_6758" data-name="Tracciato 6758" d="M165.549,118.2a3.6,3.6,0,0,1,2.2-.679,3.31,3.31,0,0,1,2.079.679,2.243,2.243,0,0,1,.88,1.88v44.852a3.141,3.141,0,0,1-1.079,2.52,3.881,3.881,0,0,1-2.6.917,4.412,4.412,0,0,1-2-.48,3.735,3.735,0,0,1-1.521-1.359l-29.9-39.655.64,11.033v27.5a2.743,2.743,0,0,1-.88,2.2,3.449,3.449,0,0,1-4.318,0,2.742,2.742,0,0,1-.878-2.2V121.038a3.51,3.51,0,0,1,.919-2.6,3.1,3.1,0,0,1,2.278-.919,3.805,3.805,0,0,1,1.839.478,3.9,3.9,0,0,1,1.439,1.361l30.781,40.456-.8-12.073V120.079a2.206,2.206,0,0,1,.919-1.88" transform="translate(134.867 123.659)" fill="#ffffff"/>
        <path id="Tracciato_6759" data-name="Tracciato 6759" d="M198.31,118.318a2.688,2.688,0,0,1,.759,1.919,2.782,2.782,0,0,1-.759,2,2.892,2.892,0,0,1-2.2.8h-17.83l.08,42.375a2.663,2.663,0,0,1-.96,2.159,3.19,3.19,0,0,1-2.079.8,2.975,2.975,0,0,1-2-.759,2.746,2.746,0,0,1-.88-2.2V123.036H154.7a2.621,2.621,0,0,1-2.04-.839,2.837,2.837,0,0,1-.759-1.96,2.665,2.665,0,0,1,2.8-2.717h41.416a2.9,2.9,0,0,1,2.2.8" transform="translate(159.831 123.659)" fill="#ffffff"/>
        <path id="Tracciato_6760" data-name="Tracciato 6760" d="M184.1,153.988a18.525,18.525,0,0,0,7.156,7.515,19.873,19.873,0,0,0,10.154,2.639,19.4,19.4,0,0,0,9.914-2.6,18.773,18.773,0,0,0,7.115-7.435,23.44,23.44,0,0,0,2.637-11.394,19.66,19.66,0,0,0-3.156-11.392,18.977,18.977,0,0,0-7.8-6.717,22,22,0,0,0-9.194-2.12,21.334,21.334,0,0,0-8.995,2.04,17.732,17.732,0,0,0-7.435,6.6q-3,4.559-3,11.593a23.614,23.614,0,0,0,2.6,11.273m4.158,12.313a23.858,23.858,0,0,1-9.315-9.434,29.037,29.037,0,0,1-3.437-14.392q0-8.395,3.918-14.111a24.331,24.331,0,0,1,9.754-8.476,26.955,26.955,0,0,1,11.593-2.758,28.691,28.691,0,0,1,11.913,2.758,25.368,25.368,0,0,1,10.193,8.476q4.119,5.717,4.117,14.111a28.173,28.173,0,0,1-3.518,14.232,25.018,25.018,0,0,1-22.066,12.872,26.529,26.529,0,0,1-13.153-3.277" transform="translate(184.673 123.248)" fill="#ffffff"/>
        <path id="Tracciato_6761" data-name="Tracciato 6761" d="M81.057,162c4.164,0,6-1.9,6-4.258-.033-2.777-2.262-4.907-6-4.907H74.539V162Zm-6.518,8.069a1.119,1.119,0,0,1-1.194,1.131,1.1,1.1,0,0,1-1.162-1.1V151.8a1.1,1.1,0,0,1,1.194-1.129h7.649c5.582,0,8.422,3.163,8.422,6.939,0,3.259-1.775,5.617-5.744,6.294l4.938,5.323a1.116,1.116,0,0,1-.743,1.97,1.172,1.172,0,0,1-.87-.421L80.8,164.031H74.539Z" transform="translate(75.953 158.539)" fill="#ffffff"/>
        <path id="Tracciato_6762" data-name="Tracciato 6762" d="M96.335,160.463a6,6,0,0,0-6.066-5.713,5.82,5.82,0,0,0-6.1,5.713Zm.679,1.968H84.266a5.865,5.865,0,0,0,5.906,4.938,7.006,7.006,0,0,0,4.293-1.354c1.129-1.032,2.807.289,1.549,1.582a8.249,8.249,0,0,1-5.746,1.935c-5.1,0-8.392-3.68-8.392-8.554a8.081,8.081,0,0,1,8.232-8.422c4.357,0,8.39,2.549,8.488,8.39,0,.712-.259,1.486-1.582,1.486" transform="translate(86.154 160.525)" fill="#ffffff"/>
        <path id="Tracciato_6763" data-name="Tracciato 6763" d="M104.9,162.334v-2.549c0-3.2-2.227-4.872-5.131-5-3.905-.066-6,2.871-6,6.163a6.088,6.088,0,0,0,5.939,6.358c2.838-.1,5.194-1.839,5.194-4.971m0-7.228v-1.065a1.085,1.085,0,0,1,1.162-1.162,1.127,1.127,0,0,1,1.194,1.162v14.007a1.111,1.111,0,0,1-1.194,1.164,1.071,1.071,0,0,1-1.162-1.164V166.66a6.026,6.026,0,0,1-5.227,2.873c-4.681,0-8.262-3.228-8.262-8.587,0-5.516,3.807-8.39,8.392-8.39a5.768,5.768,0,0,1,5.1,2.549" transform="translate(96.188 160.526)" fill="#ffffff"/>
        <path id="Tracciato_6764" data-name="Tracciato 6764" d="M114.477,164.85V162.3c0-2.84-2.194-4.841-5.133-4.97a5.739,5.739,0,0,0-6,6c0,5,3.743,6.487,6.1,6.487,2.775-.162,5.034-1.935,5.034-4.971m0-7.132v-6.423a1.179,1.179,0,0,1,2.356,0v19.3a1.07,1.07,0,0,1-1.194,1.131,1,1,0,0,1-1.1-1.131V169.27a5.909,5.909,0,0,1-5.293,2.777c-4.486,0-8.262-3.033-8.262-8.615,0-3.228,2-8.328,8.262-8.328a5.9,5.9,0,0,1,5.229,2.615" transform="translate(106.261 158.01)" fill="#ffffff"/>
        <path id="Tracciato_6765" data-name="Tracciato 6765" d="M111.412,152.714a1.076,1.076,0,0,1,1,.677l6.068,12.135,6-12.168a1.092,1.092,0,0,1,1-.644,1.16,1.16,0,0,1,1.194,1.517l-10.2,20.268c-.776,1.517-2.807.71-2.2-.806l2.84-5.777-6.906-13.588a1.2,1.2,0,0,1,1.194-1.613" transform="translate(115.869 160.691)" fill="#ffffff"/>
        <path id="Tracciato_6766" data-name="Tracciato 6766" d="M120.917,160.706a1.3,1.3,0,0,1-1.387,1.357,1.36,1.36,0,1,1,0-2.713,1.3,1.3,0,0,1,1.387,1.357" transform="translate(124.245 167.674)" fill="#ffffff"/>
        <path id="Tracciato_6767" data-name="Tracciato 6767" d="M127.169,166.261c.839,2.678,4.423,3.1,7,3.1,2.744,0,7-.677,7-3.938,0-2.807-3.388-3.033-6.939-3.325-4.451-.355-9.231-.774-9.231-5.584,0-4.258,4.907-6,8.845-6,3.388,0,7.616.644,8.97,4.324.486,1.291-1.707,1.872-2.194.774-.969-2.452-4.423-2.711-6.746-2.711-2.159,0-6.358.71-6.358,3.647,0,2.807,3.23,3.1,6.973,3.388,4.423.388,9.163.614,9.163,5.455,0,4.938-5.518,6.294-9.487,6.294-3.292,0-8.326-.969-9.393-4.841-.386-1.42,2.132-1.9,2.389-.581" transform="translate(131.256 158.374)" fill="#ffffff"/>
        <path id="Tracciato_6768" data-name="Tracciato 6768" d="M149.706,160.463a6,6,0,0,0-6.066-5.713,5.82,5.82,0,0,0-6.1,5.713Zm.679,1.968H137.637a5.866,5.866,0,0,0,5.906,4.938,7,7,0,0,0,4.291-1.354c1.131-1.032,2.807.289,1.549,1.582a8.241,8.241,0,0,1-5.744,1.935c-5.1,0-8.39-3.68-8.39-8.554a8.079,8.079,0,0,1,8.227-8.422c4.357,0,8.392,2.549,8.49,8.39,0,.712-.259,1.486-1.582,1.486" transform="translate(142.315 160.525)" fill="#ffffff"/>
        <path id="Tracciato_6769" data-name="Tracciato 6769" d="M153.057,157.241H149.54v8.779c0,1.839.289,3.776,2.485,3.776a3.637,3.637,0,0,0,1.517-.355,1.089,1.089,0,1,1,.969,1.935,4.84,4.84,0,0,1-2.485.55c-3.873,0-4.808-2.842-4.808-5.906v-8.779h-2.13a.99.99,0,1,1,0-1.968h2.13v-3.842a1.162,1.162,0,0,1,2.323,0v3.842h3.518a.989.989,0,1,1,0,1.968" transform="translate(151.505 158.132)" fill="#ffffff"/>
        <path id="Tracciato_6770" data-name="Tracciato 6770" d="M153.306,160.706a1.3,1.3,0,0,1-1.387,1.357,1.36,1.36,0,1,1,0-2.713,1.3,1.3,0,0,1,1.387,1.357" transform="translate(158.328 167.674)" fill="#ffffff"/>
        <path id="Tracciato_6771" data-name="Tracciato 6771" d="M175.638,153.707c.969,1.1-.743,2.42-1.646,1.453a7.6,7.6,0,0,0-5.873-2.454c-3.454,0-8.359,1.775-8.359,8.133a8.384,8.384,0,0,0,8.164,8.617,8.02,8.02,0,0,0,6.327-3.066c.71-1.065,2.678.1,1.839,1.291a10.4,10.4,0,0,1-8.229,4,10.6,10.6,0,0,1-10.395-10.877c0-7.39,6.263-10.294,10.587-10.294a10,10,0,0,1,7.585,3.2" transform="translate(165.69 158.374)" fill="#ffffff"/>
        <path id="Tracciato_6772" data-name="Tracciato 6772" d="M169.315,171.725a1.114,1.114,0,0,1-1.194-1.1V151.262a1.181,1.181,0,0,1,2.356,0v19.365a1.125,1.125,0,0,1-1.162,1.1" transform="translate(176.903 158.01)" fill="#ffffff"/>
        <path id="Tracciato_6773" data-name="Tracciato 6773" d="M173.325,161.075a5.952,5.952,0,0,0,6.034,6.231,6.06,6.06,0,0,0,6.068-6.165c0-4.357-3.066-6.391-6.1-6.391-3.1,0-6,2.13-6,6.325m-2.389-.257a8.155,8.155,0,0,1,8.422-8.262,8.488,8.488,0,0,1,0,16.976c-5.131,0-8.422-3.905-8.422-8.714" transform="translate(179.865 160.525)" fill="#ffffff"/>
        <path id="Tracciato_6774" data-name="Tracciato 6774" d="M188.214,167.338a6.128,6.128,0,0,0,6.066-6.1v-7.552a1.045,1.045,0,0,1,1.162-1.131,1.1,1.1,0,0,1,1.227,1.131v14.392a1.162,1.162,0,0,1-2.323-.031v-1.9a6.578,6.578,0,0,1-6.165,3.388,7.053,7.053,0,0,1-7.327-7.23v-8.615a1.045,1.045,0,0,1,1.162-1.131,1.085,1.085,0,0,1,1.194,1.131V162.3a4.993,4.993,0,0,0,5,5.036" transform="translate(190.302 160.525)" fill="#ffffff"/>
        <path id="Tracciato_6775" data-name="Tracciato 6775" d="M203.886,164.85V162.3c0-2.84-2.194-4.841-5.131-4.97a5.739,5.739,0,0,0-6,6c0,5,3.743,6.487,6.1,6.487,2.775-.162,5.034-1.935,5.034-4.971m0-7.132v-6.423a1.179,1.179,0,0,1,2.356,0v19.3a1.069,1.069,0,0,1-1.192,1.131,1,1,0,0,1-1.1-1.131V169.27a5.913,5.913,0,0,1-5.293,2.777c-4.486,0-8.262-3.033-8.262-8.615,0-3.228,2-8.328,8.262-8.328a5.9,5.9,0,0,1,5.227,2.615" transform="translate(200.342 158.01)" fill="#ffffff"/>
        <path id="Tracciato_6776" data-name="Tracciato 6776" d="M202.76,160.706a1.3,1.3,0,0,1-1.387,1.357,1.36,1.36,0,1,1,0-2.713,1.3,1.3,0,0,1,1.387,1.357" transform="translate(210.363 167.674)" fill="#ffffff"/>
        <path id="Tracciato_6777" data-name="Tracciato 6777" d="M141.183,1.318a13.477,13.477,0,0,1,11.63,0C169.958,9.523,220,33.465,234.25,40.284a6.731,6.731,0,0,1,3.829,6.077v17.83L153.837,39.213a24.053,24.053,0,0,0-13.678,0L55.917,64.191V46.361a6.735,6.735,0,0,1,3.829-6.077C74,33.465,124.039,9.523,141.183,1.318" transform="translate(58.838 -0.001)" fill="#ffffff"/>
        <path id="Tracciato_6778" data-name="Tracciato 6778" d="M152.813,129.205a13.477,13.477,0,0,1-11.63,0C124.039,121,74,97.059,59.746,90.242a6.741,6.741,0,0,1-3.829-6.079V66.333l84.242,24.98a24.089,24.089,0,0,0,13.678,0c21.173-6.28,84.242-24.98,84.242-24.98v17.83a6.734,6.734,0,0,1-3.829,6.079l-81.437,38.964" transform="translate(58.838 69.798)" fill="#ffffff"/>
        <path id="Tracciato_6779" data-name="Tracciato 6779" d="M55.916,68.61V47.7L147,39.922,238.08,47.7V68.61L147,76.386Z" transform="translate(58.836 42.008)" fill="#ffffff"/>
      </g>
    </g>
  </g>
</svg>
