<svg xmlns="http://www.w3.org/2000/svg" xmlns:xlink="http://www.w3.org/1999/xlink" width="240" height="47.822" viewBox="0 0 240 47.822">
  <defs>
    <clipPath id="clip-path">
      <rect id="Rettangolo_1" data-name="Rettangolo 1" width="240" height="47.822" fill="none"/>
    </clipPath>
  </defs>
  <g id="Raggruppa_2" data-name="Raggruppa 2" transform="translate(0 0.001)">
    <g id="Raggruppa_1" data-name="Raggruppa 1" transform="translate(0 -0.001)" clip-path="url(#clip-path)">
      <path id="Tracciato_6671" data-name="Tracciato 6671" d="M90.85,35.565a1.085,1.085,0,0,1,.87.365,1.274,1.274,0,0,1,.313.852,1.042,1.042,0,0,1-.313.765,1.175,1.175,0,0,1-.87.314H76.206a1.553,1.553,0,0,1-1.147-.452,1.473,1.473,0,0,1-.452-1.079V17.235a1.416,1.416,0,0,1,.452-1.061,1.586,1.586,0,0,1,1.147-.435H90.884a1.015,1.015,0,0,1,.8.314,1.111,1.111,0,0,1,.278.765,1.206,1.206,0,0,1-.3.8,1.016,1.016,0,0,1-.817.348H77.111v7.826H90.189a1,1,0,0,1,.783.331,1.183,1.183,0,0,1,.3.817,1.131,1.131,0,0,1-.278.748.988.988,0,0,1-.8.33H77.111v7.548Z" transform="translate(-13.695 -2.889)" fill="#f6a318"/>
      <path id="Tracciato_6672" data-name="Tracciato 6672" d="M101.828,36.573V16.956a1.1,1.1,0,0,1,.383-.9,1.464,1.464,0,0,1,1.808,0,1.1,1.1,0,0,1,.383.9V35.565H117.41a1.36,1.36,0,0,1,.974.33,1.084,1.084,0,0,1,.349.817,1.1,1.1,0,0,1-.349.8,1.313,1.313,0,0,1-.974.348H103.15a1.153,1.153,0,0,1-1.322-1.287" transform="translate(-18.691 -2.889)" fill="#f6a318"/>
      <path id="Tracciato_6673" data-name="Tracciato 6673" d="M142.609,35.565a1.085,1.085,0,0,1,.87.365,1.274,1.274,0,0,1,.313.852,1.042,1.042,0,0,1-.313.765,1.175,1.175,0,0,1-.87.314H127.965a1.553,1.553,0,0,1-1.147-.452,1.473,1.473,0,0,1-.452-1.079V17.235a1.416,1.416,0,0,1,.452-1.061,1.586,1.586,0,0,1,1.147-.435h14.678a1.015,1.015,0,0,1,.8.314,1.111,1.111,0,0,1,.278.765,1.2,1.2,0,0,1-.3.8,1.016,1.016,0,0,1-.817.348H128.87v7.826h13.078a1,1,0,0,1,.783.331,1.183,1.183,0,0,1,.3.817,1.131,1.131,0,0,1-.278.748.988.988,0,0,1-.8.33H128.87v7.548Z" transform="translate(-23.195 -2.889)" fill="#f6a318"/>
      <path id="Tracciato_6674" data-name="Tracciato 6674" d="M174.16,15.739a1.113,1.113,0,0,1,.834.365,1.379,1.379,0,0,1,.348.991V36.608a1.177,1.177,0,0,1-.365.921,1.27,1.27,0,0,1-.887.331,1.335,1.335,0,0,1-.9-.331,1.149,1.149,0,0,1-.383-.921V21.3l-7.1,11.1a1.351,1.351,0,0,1-1.182.731,1.432,1.432,0,0,1-1.217-.731l-7.095-11.026V36.608a1.175,1.175,0,0,1-.366.921,1.27,1.27,0,0,1-.887.331,1.335,1.335,0,0,1-.9-.331,1.148,1.148,0,0,1-.382-.921V17.13a1.4,1.4,0,0,1,.365-1.008,1.14,1.14,0,0,1,.852-.383,1.2,1.2,0,0,1,.627.191,1.5,1.5,0,0,1,.522.574l8.486,13.182,8.418-13.217a1.375,1.375,0,0,1,1.217-.731" transform="translate(-28.208 -2.889)" fill="#f6a318"/>
      <path id="Tracciato_6675" data-name="Tracciato 6675" d="M204,35.565a1.084,1.084,0,0,1,.87.365,1.271,1.271,0,0,1,.314.852,1.039,1.039,0,0,1-.314.765,1.174,1.174,0,0,1-.87.314H189.353a1.556,1.556,0,0,1-1.148-.452,1.473,1.473,0,0,1-.452-1.079V17.235a1.416,1.416,0,0,1,.452-1.061,1.589,1.589,0,0,1,1.148-.435h14.678a1.012,1.012,0,0,1,.8.314,1.107,1.107,0,0,1,.278.765,1.2,1.2,0,0,1-.3.8,1.015,1.015,0,0,1-.817.348H190.257v7.826h13.079a1,1,0,0,1,.782.331,1.183,1.183,0,0,1,.3.817,1.131,1.131,0,0,1-.278.748.985.985,0,0,1-.8.33H190.257v7.548Z" transform="translate(-34.463 -2.889)" fill="#f6a318"/>
      <path id="Tracciato_6676" data-name="Tracciato 6676" d="M231.023,16.035a1.565,1.565,0,0,1,.956-.3,1.438,1.438,0,0,1,.9.3.976.976,0,0,1,.383.817V36.364a1.363,1.363,0,0,1-.469,1.1,1.686,1.686,0,0,1-1.131.4,1.923,1.923,0,0,1-.87-.208,1.627,1.627,0,0,1-.66-.592L217.128,19.808l.278,4.8V36.573a1.2,1.2,0,0,1-.383.956,1.5,1.5,0,0,1-1.879,0,1.194,1.194,0,0,1-.382-.956v-19.3a1.531,1.531,0,0,1,.4-1.131,1.346,1.346,0,0,1,.991-.4,1.653,1.653,0,0,1,.8.208,1.708,1.708,0,0,1,.626.591l13.39,17.6-.348-5.252V16.852a.959.959,0,0,1,.4-.817" transform="translate(-39.421 -2.889)" fill="#f6a318"/>
      <path id="Tracciato_6677" data-name="Tracciato 6677" d="M260.9,16.087a1.17,1.17,0,0,1,.331.834,1.21,1.21,0,0,1-.331.87,1.252,1.252,0,0,1-.955.349h-7.757l.034,18.434a1.158,1.158,0,0,1-.417.94,1.386,1.386,0,0,1-.9.347,1.293,1.293,0,0,1-.87-.33,1.2,1.2,0,0,1-.382-.957V18.139h-7.722a1.137,1.137,0,0,1-.887-.366,1.228,1.228,0,0,1-.331-.852,1.161,1.161,0,0,1,1.217-1.182h18.018a1.258,1.258,0,0,1,.955.348" transform="translate(-44.183 -2.889)" fill="#f6a318"/>
      <path id="Tracciato_6678" data-name="Tracciato 6678" d="M270.262,31.347a8.063,8.063,0,0,0,3.113,3.27,8.655,8.655,0,0,0,4.417,1.148,8.44,8.44,0,0,0,4.313-1.131,8.166,8.166,0,0,0,3.1-3.235,10.2,10.2,0,0,0,1.148-4.956,8.554,8.554,0,0,0-1.374-4.957,8.256,8.256,0,0,0-3.391-2.922,9.571,9.571,0,0,0-4-.922,9.283,9.283,0,0,0-3.913.887,7.713,7.713,0,0,0-3.234,2.869,9.007,9.007,0,0,0-1.3,5.044,10.261,10.261,0,0,0,1.131,4.9m1.808,5.357a10.381,10.381,0,0,1-4.052-4.1,12.625,12.625,0,0,1-1.5-6.26,10.4,10.4,0,0,1,5.948-9.826,11.722,11.722,0,0,1,5.043-1.2,12.482,12.482,0,0,1,5.183,1.2,11.036,11.036,0,0,1,4.434,3.687,10.225,10.225,0,0,1,1.791,6.139,12.265,12.265,0,0,1-1.53,6.191,10.892,10.892,0,0,1-9.6,5.6,11.536,11.536,0,0,1-5.722-1.426" transform="translate(-48.922 -2.81)" fill="#f6a318"/>
      <path id="Tracciato_6679" data-name="Tracciato 6679" d="M20.356.314a3.218,3.218,0,0,1,2.776,0l19.441,9.3a1.608,1.608,0,0,1,.914,1.45v4.256L23.377,9.36a5.741,5.741,0,0,0-3.265,0L0,15.323V11.067a1.607,1.607,0,0,1,.914-1.45L20.356.314" transform="translate(0 0.001)" fill="#f6a318"/>
      <path id="Tracciato_6680" data-name="Tracciato 6680" d="M23.131,54.812a3.212,3.212,0,0,1-2.776,0L.914,45.51A1.609,1.609,0,0,1,0,44.059V39.8l20.111,5.962a5.741,5.741,0,0,0,3.265,0L43.486,39.8v4.256a1.608,1.608,0,0,1-.914,1.451l-19.441,9.3" transform="translate(0 -7.306)" fill="#f6a318"/>
      <path id="Tracciato_6681" data-name="Tracciato 6681" d="M0,30.8V25.812l21.743-1.857,21.744,1.857V30.8L21.743,32.66Z" transform="translate(0 -4.397)" fill="#f6a318"/>
    </g>
  </g>
</svg>
