<svg xmlns="http://www.w3.org/2000/svg" xmlns:xlink="http://www.w3.org/1999/xlink" width="1440" height="900" viewBox="0 0 1440 900">
  <defs>
    <clipPath id="clip-path">
      <path id="Tracciato_6730" data-name="Tracciato 6730" d="M0,0H1440V900H0Z"/>
    </clipPath>
    <clipPath id="clip-path-2">
      <rect id="Rettangolo_375" data-name="Rettangolo 375" width="1919.5" height="724.79" fill="#ffa600"/>
    </clipPath>
  </defs>
  <g id="Gruppo_di_maschere_1" data-name="Gruppo di maschere 1" clip-path="url(#clip-path)">
    <g id="Raggruppa_2764" data-name="Raggruppa 2764" transform="translate(-479.5 246)">
      <g id="Raggruppa_2763" data-name="Raggruppa 2763" clip-path="url(#clip-path-2)">
        <path id="Tracciato_6671" data-name="Tracciato 6671" d="M0,724.79c646.737-98.09,1288.723-194.152,1919.5-287.2V433.68C1288.724,526.728,646.738,622.789,0,720.877Z" fill="#ffa600"/>
        <path id="Tracciato_6672" data-name="Tracciato 6672" d="M0,694.032c647.766-96.688,1290.86-190.643,1919.5-280.406v-3.909C1290.866,499.477,647.772,593.43,0,690.118Z" fill="#ffa600"/>
        <path id="Tracciato_6673" data-name="Tracciato 6673" d="M0,661.755C648.724,566.6,1293.527,475.2,1919.5,389.721v-3.907C1293.533,471.3,648.73,562.7,0,657.845Z" fill="#ffa600"/>
        <path id="Tracciato_6674" data-name="Tracciato 6674" d="M0,627.908c649.445-93.589,1296.846-181.92,1919.5-261.8V362.2C1296.855,442.08,649.453,530.408,0,623.994Z" fill="#ffa600"/>
        <path id="Tracciato_6675" data-name="Tracciato 6675" d="M0,592.483c649.631-92.229,1301.012-176.914,1919.5-249.4v-3.9C1301.019,411.666,649.64,496.344,0,588.57Z" fill="#ffa600"/>
        <path id="Tracciato_6676" data-name="Tracciato 6676" d="M1910.849,321.942l8.651-.894v-3.894l-14.858,1.535,6.207,3.253" fill="#ffa600"/>
        <path id="Tracciato_6677" data-name="Tracciato 6677" d="M1870.078,322.259C1271.008,384.144,631.394,462.7,0,551.763v3.908c631.52-89.088,1271.284-167.662,1870.473-229.558l33.407-3.452-6.207-3.253-27.595,2.851" fill="#ffa600"/>
        <path id="Tracciato_6678" data-name="Tracciato 6678" d="M1767.49,309.632C1223.289,357.025,637.265,424.247,65.367,504.783l-10.209,5.351c575.238-81.2,1165.123-148.959,1712.671-196.651l101.642-8.855-6.349-3.328-95.632,8.332" fill="#ffa600"/>
        <path id="Tracciato_6679" data-name="Tracciato 6679" d="M1876.624,304l42.876-3.735v-3.881l-49.225,4.289,6.349,3.327" fill="#ffa600"/>
        <path id="Tracciato_6680" data-name="Tracciato 6680" d="M1685.444,296.785l150.02-9.981-6.575-3.445-143.7,9.56c-469.326,31.2-977.634,83.942-1469.975,152.516q-25.034,3.486-50.026,7.032l-10.242,5.368q30.369-4.321,60.8-8.563C708,380.71,1216.215,327.983,1685.444,296.785" fill="#ffa600"/>
        <path id="Tracciato_6681" data-name="Tracciato 6681" d="M1919.5,280.546V277.33l-7.37.491,7.37,2.725" fill="#ffa600"/>
        <path id="Tracciato_6682" data-name="Tracciato 6682" d="M1842.867,286.312l68.7-4.571-8.9-3.291-66.378,4.416,6.575,3.446" fill="#ffa600"/>
        <path id="Tracciato_6683" data-name="Tracciato 6683" d="M11.683,474.814,0,480.087v.394q71.51-10.729,143.489-21.015l10.251-5.372q-71.231,10.139-142.057,20.72" fill="#ffa600"/>
        <path id="Tracciato_6684" data-name="Tracciato 6684" d="M120.191,425.837q61.351-9.644,123.28-18.773l10.365-5.432q-60.417,8.853-120.347,18.2l-13.3,6" fill="#ffa600"/>
        <path id="Tracciato_6685" data-name="Tracciato 6685" d="M0,441.392v3.923q52.585-8.781,105.718-17.193l13.347-6.025Q59.211,431.508,0,441.392" fill="#ffa600"/>
        <path id="Tracciato_6686" data-name="Tracciato 6686" d="M1809.727,268.943l60.624-2.444L1860.9,263l-58.038,2.339,6.87,3.6" fill="#ffa600"/>
        <path id="Tracciato_6687" data-name="Tracciato 6687" d="M1619.492,276.612l182.489-7.357-6.87-3.6-175.773,7.085C1240.183,288.005,829,324.057,430.238,377q-82.7,10.98-164.833,22.943l-10.351,5.425q87.448-12.809,175.693-24.529c398.646-52.925,809.711-88.965,1188.745-104.224" fill="#ffa600"/>
        <path id="Tracciato_6688" data-name="Tracciato 6688" d="M1880.416,266.094l39.084-1.576v-3.877l-48.54,1.957,9.456,3.5" fill="#ffa600"/>
        <path id="Tracciato_6689" data-name="Tracciato 6689" d="M139.4,385.7q-9.414,3.7-18.9,7.426,51.563-9.591,103.958-18.6l14.01-6.322q-49.879,8.486-99.069,17.5" fill="#ffa600"/>
        <path id="Tracciato_6690" data-name="Tracciato 6690" d="M239.619,371.931q51.189-8.707,103.017-16.84l10.65-5.582q-50.15,7.8-99.759,16.144l-13.908,6.278" fill="#ffa600"/>
        <path id="Tracciato_6691" data-name="Tracciato 6691" d="M1777.409,252.005l52.762-.363-10.28-3.8-49.774.342,7.292,3.822" fill="#ffa600"/>
        <path id="Tracciato_6692" data-name="Tracciato 6692" d="M1841.13,251.567l56-.385-14.968-3.769-51.311.353,10.281,3.8" fill="#ffa600"/>
        <path id="Tracciato_6693" data-name="Tracciato 6693" d="M25.986,407.377,0,416.367v.181q49.648-10.077,100.269-19.632l19.156-7.525q-47.106,8.762-93.439,17.986" fill="#ffa600"/>
        <path id="Tracciato_6694" data-name="Tracciato 6694" d="M1912.56,251.075l6.94-.048v-3.872q-10.989.076-21.908.151l14.968,3.769" fill="#ffa600"/>
        <path id="Tracciato_6695" data-name="Tracciato 6695" d="M1566.885,253.454l202.29-1.392-7.292-3.822-195.024,1.342c-306.04,2.085-638.481,24.439-961.383,64.637-80.67,10.043-160.963,21.228-240.346,33.455l-10.61,5.56c82.99-12.9,167-24.663,251.433-35.174,322.757-40.179,655.041-62.521,960.932-64.606" fill="#ffa600"/>
        <path id="Tracciato_6696" data-name="Tracciato 6696" d="M1919.5,238.6v-.228l-3.234-.293,3.234.521" fill="#ffa600"/>
        <path id="Tracciato_6697" data-name="Tracciato 6697" d="M1356.6,224.737c57.032,0,113.336.984,168.507,2.966l212.09,7.6-7.935-4.158-204.018-7.312c-246.75-8.862-515.35,2.209-776.763,32.012-96.1,10.956-191.533,24.436-284.868,40.211q-5.533,2.9-11.107,5.823c97-16.628,196.344-30.78,296.414-42.186,202.776-23.121,409.829-34.956,607.68-34.956" fill="#ffa600"/>
        <path id="Tracciato_6698" data-name="Tracciato 6698" d="M356.028,319.388c3.325-.638,6.639-1.284,9.97-1.916q36.771-6.97,74.082-13.452l11.167-5.853q-40.355,6.923-80.131,14.411l-15.088,6.81" fill="#ffa600"/>
        <path id="Tracciato_6699" data-name="Tracciato 6699" d="M257.25,339.406q40.787-8.721,82.329-16.843l15.261-6.888q-38.194,7.328-75.8,15.171l-21.789,8.56" fill="#ffa600"/>
        <path id="Tracciato_6700" data-name="Tracciato 6700" d="M129.4,364.7l-73.822,22.77q30.69-8.113,62.042-15.888l38.637-13.366q-13.488,3.207-26.857,6.484" fill="#ffa600"/>
        <path id="Tracciato_6701" data-name="Tracciato 6701" d="M157.348,361.934q37.744-8.971,76.312-17.42l22.472-8.828q-32.056,6.855-63.6,14.076l-35.185,12.172" fill="#ffa600"/>
        <path id="Tracciato_6702" data-name="Tracciato 6702" d="M1868.627,240.014,1914,241.64l-30.977-4.985-32.343-1.159,17.944,4.518" fill="#ffa600"/>
        <path id="Tracciato_6703" data-name="Tracciato 6703" d="M1803.581,237.683l46.563,1.669-17.946-4.518-40.223-1.442,11.606,4.291" fill="#ffa600"/>
        <path id="Tracciato_6704" data-name="Tracciato 6704" d="M1746.154,235.625l45.066,1.615-11.6-4.291-41.4-1.484,7.936,4.16" fill="#ffa600"/>
        <path id="Tracciato_6705" data-name="Tracciato 6705" d="M467.422,269.109q33.031-7.5,66.652-14.352l12.218-6.4q-30.948,6.168-61.439,12.888l-17.431,7.868" fill="#ffa600"/>
        <path id="Tracciato_6706" data-name="Tracciato 6706" d="M386.268,288.723q30.641-7.877,61.928-15.185l17.989-8.119q-26.079,5.922-51.752,12.239l-28.165,11.065" fill="#ffa600"/>
        <path id="Tracciato_6707" data-name="Tracciato 6707" d="M1768.455,224.694l36.665,3.322L1781,221.941l-26.471-2.4,13.93,5.15" fill="#ffa600"/>
        <path id="Tracciato_6708" data-name="Tracciato 6708" d="M1860.52,233.033l-54.37-8.75,23.73,5.975,30.64,2.775" fill="#ffa600"/>
        <path id="Tracciato_6709" data-name="Tracciato 6709" d="M865.782,204.7c105.21-10.6,211.572-16.422,316.132-17.322q14.366-.124,28.677-.123c95.981,0,190.565,4.167,281.529,12.416L1706.2,219.056l-8.972-4.7-204.756-18.544c-100.146-9.081-204.642-13.223-310.589-12.308-104.68.9-211.162,6.735-316.487,17.342-103.653,10.438-206.478,25.538-305.724,44.869L547.6,252.042c2.669-.532,5.329-1.073,8-1.6,100.614-19.762,204.973-35.153,310.183-45.747" fill="#ffa600"/>
        <path id="Tracciato_6710" data-name="Tracciato 6710" d="M1716.283,219.969l37.388,3.386-13.93-5.151-32.429-2.937,8.971,4.7" fill="#ffa600"/>
        <path id="Tracciato_6711" data-name="Tracciato 6711" d="M1916.266,238.082l3.234.293v-3.889l-58.508-5.3,55.274,8.9" fill="#ffa600"/>
        <path id="Tracciato_6712" data-name="Tracciato 6712" d="M204.266,341.606l98.064-33.924q-20.292,5.9-40.229,12.032L54.478,383.753,0,400.557v4.053l55.582-17.144L129.4,364.7l74.862-23.09" fill="#ffa600"/>
        <path id="Tracciato_6713" data-name="Tracciato 6713" d="M303.5,311.376q25.044-7.279,50.615-14.181l30.957-12.161q-11.211,2.881-22.322,5.846l-59.25,20.5" fill="#ffa600"/>
        <path id="Tracciato_6714" data-name="Tracciato 6714" d="M572.852,221.523q24.815-6.984,50.132-13.364l14.447-7.571q-21.137,5.152-41.959,10.725l-22.62,10.21" fill="#ffa600"/>
        <path id="Tracciato_6715" data-name="Tracciato 6715" d="M961.5,152.242c60.975-5.109,122.35-7.675,183.264-7.675q36.1,0,71.932,1.2a1998.267,1998.267,0,0,1,249.579,23.819l210.022,33.8-10.8-5.66c-70.6-11.362-136.951-22.04-198.608-31.961A2002.582,2002.582,0,0,0,1216.827,141.9a2191.723,2191.723,0,0,0-255.648,6.484A2152.292,2152.292,0,0,0,709.525,184.41q-28.6,5.863-56.732,12.5l-13.983,7.328q35.356-8.608,71.491-16.033a2148.553,2148.553,0,0,1,251.2-35.961" fill="#ffa600"/>
        <path id="Tracciato_6716" data-name="Tracciato 6716" d="M1737.435,213.225l24.779,3.988-43.171-10.87-.39-.063,18.782,6.945" fill="#ffa600"/>
        <path id="Tracciato_6717" data-name="Tracciato 6717" d="M157.348,361.934l35.185-12.172L303.5,311.376l59.25-20.5,62.308-21.554L504.2,238.233q-16.523,5.348-32.766,10.95l-169.107,58.5-98.065,33.924q-23.709,8.2-48,16.607l-38.638,13.366L0,412.269v4.1l25.986-8.99,131.362-45.443" fill="#ffa600"/>
        <path id="Tracciato_6718" data-name="Tracciato 6718" d="M1688.338,205.323l29.333,4.721-18.782-6.945-21.351-3.436,10.8,5.66" fill="#ffa600"/>
        <path id="Tracciato_6719" data-name="Tracciato 6719" d="M505.5,241.883q20.342-6.582,41.1-12.76l24.911-11.244q-9.192,2.589-18.3,5.264l-47.7,18.74" fill="#ffa600"/>
        <path id="Tracciato_6720" data-name="Tracciato 6720" d="M1860.992,229.186l-98.014-15.773q21.34,5.373,43.172,10.87l54.37,8.749,22.506,3.622L1914,241.64l5.5.884V238.6l-3.234-.521-55.274-8.895" fill="#ffa600"/>
        <path id="Tracciato_6721" data-name="Tracciato 6721" d="M257.25,339.406l21.789-8.56,107.229-42.124,28.165-11.064L505.5,241.883l47.7-18.739,51.22-20.121,64.395-29.065q-13.459,4.913-26.7,10.1L504.2,238.233l-79.147,31.092L385.07,285.033l-30.957,12.161-97.981,38.491-22.472,8.828L119.425,389.39l-19.156,7.526L0,436.306v4.16l120.5-47.339,18.9-7.425,117.848-46.3" fill="#ffa600"/>
        <path id="Tracciato_6722" data-name="Tracciato 6722" d="M1040.111,101.642q43.094-2.682,86.3-2.683c40.043,0,80,1.734,119.455,5.195a1280.761,1280.761,0,0,1,200.373,33.5l201.4,50.708-14.658-7.683-185.8-46.779a1284.767,1284.767,0,0,0-200.98-33.6,1384.185,1384.185,0,0,0-410.273,25.56q-47.019,10.152-92.537,23.57l-18.255,9.568c36.342-11.34,73.653-21.159,111.611-29.354a1370.422,1370.422,0,0,1,203.364-28" fill="#ffa600"/>
        <path id="Tracciato_6723" data-name="Tracciato 6723" d="M670.29,177.543q16.436-6,33.187-11.569,10.18-5.335,20.162-10.568-7.41,2.314-14.759,4.719l-38.59,17.418" fill="#ffa600"/>
        <path id="Tracciato_6724" data-name="Tracciato 6724" d="M1663.69,192.4l19.679,4.955q-17.119-6.328-33.834-12.511l-.5-.125,14.658,7.681" fill="#ffa600"/>
        <path id="Tracciato_6725" data-name="Tracciato 6725" d="M1897.592,247.307l-28.965-7.293-17.944-4.518-20.8-5.238-23.73-5.975-43.172-10.87-78.459-19.754,33.834,12.51.69.174,43.172,10.87L1781,221.941l24.124,6.075,27.079,6.817,17.944,4.519,32.017,8.061,14.969,3.769,22.371,5.633v-3.992l-6.94-1.747-14.968-3.769" fill="#ffa600"/>
        <path id="Tracciato_6726" data-name="Tracciato 6726" d="M120.191,425.837l13.3-6,106.131-47.9,13.908-6.278,102.5-46.265,15.088-6.81,96.307-43.469,17.431-7.868,88-39.719,22.621-10.21,74.817-33.769,38.591-17.417,41.455-18.711,52.947-27.749q-10.984,4.578-21.8,9.442L668.82,173.958l-64.4,29.065L571.509,217.88,546.6,229.123l-80.414,36.295q-8.943,4.038-17.988,8.119l-93.356,42.138-15.262,6.888L238.472,368.2l-14.01,6.324L119.065,422.1l-13.347,6.025L0,475.839v4.249l11.683-5.274,108.508-48.977" fill="#ffa600"/>
        <path id="Tracciato_6727" data-name="Tracciato 6727" d="M1104.871,52.339q15.239-.531,30.488-.531a871.2,871.2,0,0,1,135.134,10.514,839.023,839.023,0,0,1,160.422,41.693l189.4,70.032-26.743-14.015-161.318-59.648A842.806,842.806,0,0,0,1271.094,58.5a877.7,877.7,0,0,0-331.65,11.581,852.12,852.12,0,0,0-103.109,30.638l-31.417,16.465A844.033,844.033,0,0,1,940.31,73.852a873.275,873.275,0,0,1,164.561-21.513" fill="#ffa600"/>
        <path id="Tracciato_6728" data-name="Tracciato 6728" d="M1880.416,266.094l-9.456-3.5-29.83-11.031-10.28-3.8-27.269-10.083-11.605-4.291-23.521-8.7-13.93-5.151-17.09-6.319-18.782-6.945-.3-.111-33.834-12.51-62.614-23.152,26.743,14.015.887.328,33.834,12.511,15.52,5.738,18.782,6.945,22.07,8.161,13.931,5.151,25.944,9.593,11.6,4.291,28.671,10.6,10.28,3.8L1860.9,263l9.456,3.5,32.319,11.95,8.9,3.291,7.93,2.932v-4.127l-7.37-2.725-31.714-11.727" fill="#ffa600"/>
        <path id="Tracciato_6729" data-name="Tracciato 6729" d="M1904.642,318.688,1876.624,304l-6.348-3.328-27.409-14.365-6.575-3.446-26.565-13.922-6.87-3.6-25.448-13.337-7.291-3.822-23.964-12.559-7.936-4.159-21.934-11.5-8.972-4.7-18.974-9.944-10.8-5.66-13.847-7.258-14.658-7.682-.385-.2-26.743-14.015L1421.243,65.342h0a574.62,574.62,0,0,0-128.851-49.006,557.546,557.546,0,0,0-267.958,0A575.731,575.731,0,0,0,895.491,65.342l-92.208,48.324-52.947,27.749-26.7,13.992-20.162,10.566-66.045,34.614-14.447,7.572-76.692,40.194-12.218,6.4-82.828,43.411-11.167,5.852-86.793,45.489-10.651,5.582-88.8,46.541-10.366,5.433-89.73,47.029-10.251,5.373L53.948,506.4l-10.21,5.351L0,534.671v4.372l55.158-28.91,10.21-5.35,89.576-46.949,10.242-5.368,89.869-47.1,10.35-5.425,89.116-46.707,10.609-5.56,87.378-45.8,11.107-5.821q43.025-22.551,83.983-44.016l12.073-6.328,79.139-41.477,13.983-7.328,72.343-37.914,18.255-9.568,61.528-32.245,31.417-16.466,60.951-31.943A571.823,571.823,0,0,1,1025.361,20.1a553.68,553.68,0,0,1,266.1,0,570.71,570.71,0,0,1,127.981,48.676h0l174.132,91.259,26.742,14.016,12.658,6.634,14.658,7.682,17.864,9.362,10.8,5.661,20.928,10.968,8.972,4.7,23.064,12.088,7.937,4.159,24.683,12.937,7.292,3.822,25.936,13.592,6.87,3.6,26.909,14.1,6.574,3.446,27.659,14.5,6.348,3.327,28.2,14.781,6.207,3.253,15.619,8.186v-4.372l-8.651-4.534-6.207-3.253" fill="#ffa600"/>
      </g>
    </g>
  </g>
</svg>
